HIERARCHY
ROOT Hips
{
	OFFSET 0.000000 121.760803 0.000000
	CHANNELS 6 Xposition Yposition Zposition Xrotation Yrotation Zrotation 
	JOINT Spine
	{
		OFFSET 0.072000 7.257294 -0.789700
		CHANNELS 3 Xrotation Yrotation Zrotation
		JOINT Spine1
		{
			OFFSET 0.000000 12.508769 -0.658067
			CHANNELS 3 Xrotation Yrotation Zrotation
			JOINT Spine1_split
			{
				OFFSET 0.000000 12.508769 -0.658067
				CHANNELS 3 Xrotation Yrotation Zrotation
				JOINT Spine2
				{
					OFFSET 0.000000 12.508769 -0.658067
					CHANNELS 3 Xrotation Yrotation Zrotation
					JOINT Neck
					{
						OFFSET 0.000000 14.033295 7.520400
						CHANNELS 3 Xrotation Yrotation Zrotation
						JOINT Head
						{
							OFFSET 0.000000 8.198502 5.703100
							CHANNELS 3 Xrotation Yrotation Zrotation
							JOINT HeadTop_End
							{
								OFFSET 0.000000 17.760803 13.332701
								CHANNELS 3 Xrotation Yrotation Zrotation
								End Site
								{
									OFFSET 0.000000 0.000000 0.000000
								}
							}
						}
					}
					JOINT LeftShoulder
					{
						OFFSET 6.292450 5.785301 -0.669000
						CHANNELS 3 Xrotation Yrotation Zrotation
						JOINT LeftShoulder_split
						{
							OFFSET 6.292450 5.785301 -0.669000
							CHANNELS 3 Xrotation Yrotation Zrotation
							JOINT LeftArm
							{
								OFFSET 13.907140 -6.093903 1.965100
								CHANNELS 3 Xrotation Yrotation Zrotation
								JOINT LeftForeArm
								{
									OFFSET 34.140198 0.000000 0.000000
									CHANNELS 3 Xrotation Yrotation Zrotation
									JOINT LeftHand
									{
										OFFSET 40.960209 0.000000 0.000000
										CHANNELS 3 Xrotation Yrotation Zrotation
										JOINT LeftHandThumb1
										{
											OFFSET 10.006996 -7.170425 9.573125
											CHANNELS 3 Xrotation Yrotation Zrotation
											JOINT LeftHandThumb2
											{
												OFFSET 1.835007 -1.059448 1.059443
												CHANNELS 3 Xrotation Yrotation Zrotation
												JOINT LeftHandThumb3
												{
													OFFSET 2.112267 -1.219513 1.219518
													CHANNELS 3 Xrotation Yrotation Zrotation
													JOINT LeftHandThumb4
													{
														OFFSET 4.843811 -2.796570 2.796576
														CHANNELS 3 Xrotation Yrotation Zrotation
														End Site
														{
															OFFSET 0.000000 0.000000 0.000000
														}
													}
												}
											}
										}
										JOINT LeftHandIndex1
										{
											OFFSET 18.389847 -0.922348 4.596882
											CHANNELS 3 Xrotation Yrotation Zrotation
											JOINT LeftHandIndex2
											{
												OFFSET 4.711273 0.000000 0.000000
												CHANNELS 3 Xrotation Yrotation Zrotation
												JOINT LeftHandIndex3
												{
													OFFSET 2.886131 0.000000 0.000000
													CHANNELS 3 Xrotation Yrotation Zrotation
													JOINT LeftHandIndex4
													{
														OFFSET 6.145912 0.000000 0.000000
														CHANNELS 3 Xrotation Yrotation Zrotation
														End Site
														{
															OFFSET 0.000000 0.000000 0.000000
														}
													}
												}
											}
										}
										JOINT LeftHandMiddle1
										{
											OFFSET 18.013008 0.000000 0.000000
											CHANNELS 3 Xrotation Yrotation Zrotation
											JOINT LeftHandMiddle2
											{
												OFFSET 4.946693 0.000000 0.000000
												CHANNELS 3 Xrotation Yrotation Zrotation
												JOINT LeftHandMiddle3
												{
													OFFSET 3.342232 0.000000 0.000000
													CHANNELS 3 Xrotation Yrotation Zrotation
													JOINT LeftHandMiddle4
													{
														OFFSET 4.461754 0.000000 0.000000
														CHANNELS 3 Xrotation Yrotation Zrotation
														End Site
														{
															OFFSET 0.000000 0.000000 0.000000
														}
													}
												}
											}
										}
										JOINT LeftHandRing1
										{
											OFFSET 15.849892 -0.102921 -4.126150
											CHANNELS 3 Xrotation Yrotation Zrotation
											JOINT LeftHandRing2
											{
												OFFSET 3.527054 0.000000 0.000000
												CHANNELS 3 Xrotation Yrotation Zrotation
												JOINT LeftHandRing3
												{
													OFFSET 2.961098 0.000000 0.000000
													CHANNELS 3 Xrotation Yrotation Zrotation
													JOINT LeftHandRing4
													{
														OFFSET 4.927200 0.000000 0.000000
														CHANNELS 3 Xrotation Yrotation Zrotation
														End Site
														{
															OFFSET 0.000000 0.000000 0.000000
														}
													}
												}
											}
										}
										JOINT LeftHandPinky1
										{
											OFFSET 12.791824 -0.832031 -6.799156
											CHANNELS 3 Xrotation Yrotation Zrotation
											JOINT LeftHandPinky2
											{
												OFFSET 3.327133 0.000000 0.000000
												CHANNELS 3 Xrotation Yrotation Zrotation
												JOINT LeftHandPinky3
												{
													OFFSET 3.014900 0.000000 0.000000
													CHANNELS 3 Xrotation Yrotation Zrotation
													JOINT LeftHandPinky4
													{
														OFFSET 5.847786 0.000000 0.000000
														CHANNELS 3 Xrotation Yrotation Zrotation
														End Site
														{
															OFFSET 0.000000 0.000000 0.000000
														}
													}
												}
											}
										}
									}
								}
							}
						}
					}
					JOINT RightShoulder
					{
						OFFSET -6.292450 5.785301 -0.669000
						CHANNELS 3 Xrotation Yrotation Zrotation
						JOINT RightShoulder_split
						{
							OFFSET -6.292450 5.785301 -0.669000
							CHANNELS 3 Xrotation Yrotation Zrotation
							JOINT RightArm
							{
								OFFSET -13.907140 -6.093903 1.965100
								CHANNELS 3 Xrotation Yrotation Zrotation
								JOINT RightForeArm
								{
									OFFSET -34.140198 0.000000 0.000000
									CHANNELS 3 Xrotation Yrotation Zrotation
									JOINT RightHand
									{
										OFFSET -40.960209 0.000000 0.000000
										CHANNELS 3 Xrotation Yrotation Zrotation
										JOINT RightHandThumb1
										{
											OFFSET -10.007050 -7.170456 9.573117
											CHANNELS 3 Xrotation Yrotation Zrotation
											JOINT RightHandThumb2
											{
												OFFSET -1.835007 -1.059448 1.059443
												CHANNELS 3 Xrotation Yrotation Zrotation
												JOINT RightHandThumb3
												{
													OFFSET -2.112267 -1.219513 1.219518
													CHANNELS 3 Xrotation Yrotation Zrotation
													JOINT RightHandThumb4
													{
														OFFSET -4.843834 -2.796585 2.796590
														CHANNELS 3 Xrotation Yrotation Zrotation
														End Site
														{
															OFFSET 0.000000 0.000000 0.000000
														}
													}
												}
											}
										}
										JOINT RightHandIndex1
										{
											OFFSET -18.389870 -0.922424 4.596786
											CHANNELS 3 Xrotation Yrotation Zrotation
											JOINT RightHandIndex2
											{
												OFFSET -4.711273 0.000000 0.000000
												CHANNELS 3 Xrotation Yrotation Zrotation
												JOINT RightHandIndex3
												{
													OFFSET -2.886131 0.000000 0.000000
													CHANNELS 3 Xrotation Yrotation Zrotation
													JOINT RightHandIndex4
													{
														OFFSET -6.145920 0.000000 0.000000
														CHANNELS 3 Xrotation Yrotation Zrotation
														End Site
														{
															OFFSET 0.000000 0.000000 0.000000
														}
													}
												}
											}
										}
										JOINT RightHandMiddle1
										{
											OFFSET -18.013008 0.000000 0.000000
											CHANNELS 3 Xrotation Yrotation Zrotation
											JOINT RightHandMiddle2
											{
												OFFSET -4.946693 0.000000 0.000000
												CHANNELS 3 Xrotation Yrotation Zrotation
												JOINT RightHandMiddle3
												{
													OFFSET -3.342232 0.000000 0.000000
													CHANNELS 3 Xrotation Yrotation Zrotation
													JOINT RightHandMiddle4
													{
														OFFSET -4.461754 0.000000 0.000000
														CHANNELS 3 Xrotation Yrotation Zrotation
														End Site
														{
															OFFSET 0.000000 0.000000 0.000000
														}
													}
												}
											}
										}
										JOINT RightHandRing1
										{
											OFFSET -15.849876 -0.102936 -4.126237
											CHANNELS 3 Xrotation Yrotation Zrotation
											JOINT RightHandRing2
											{
												OFFSET -3.527054 0.000000 0.000000
												CHANNELS 3 Xrotation Yrotation Zrotation
												JOINT RightHandRing3
												{
													OFFSET -2.961098 0.000000 0.000000
													CHANNELS 3 Xrotation Yrotation Zrotation
													JOINT RightHandRing4
													{
														OFFSET -4.927200 0.000000 0.000000
														CHANNELS 3 Xrotation Yrotation Zrotation
														End Site
														{
															OFFSET 0.000000 0.000000 0.000000
														}
													}
												}
											}
										}
										JOINT RightHandPinky1
										{
											OFFSET -12.791786 -0.832077 -6.799222
											CHANNELS 3 Xrotation Yrotation Zrotation
											JOINT RightHandPinky2
											{
												OFFSET -3.327133 0.000000 0.000000
												CHANNELS 3 Xrotation Yrotation Zrotation
												JOINT RightHandPinky3
												{
													OFFSET -3.014900 0.000000 0.000000
													CHANNELS 3 Xrotation Yrotation Zrotation
													JOINT RightHandPinky4
													{
														OFFSET -5.847786 0.000000 0.000000
														CHANNELS 3 Xrotation Yrotation Zrotation
														End Site
														{
															OFFSET 0.000000 0.000000 0.000000
														}
													}
												}
											}
										}
									}
								}
							}
						}
					}
				}
			}
		}
	}
	JOINT LeftUpLeg
	{
		OFFSET 13.026900 -6.336304 -1.092800
		CHANNELS 3 Xrotation Yrotation Zrotation
		JOINT LeftLeg
		{
			OFFSET 0.524474 -46.096886 9.782700
			CHANNELS 3 Xrotation Yrotation Zrotation
			JOINT LeftFoot
			{
				OFFSET -0.524474 -53.427422 -12.948200
				CHANNELS 3 Xrotation Yrotation Zrotation
				JOINT LeftToeBase
				{
					OFFSET 0.192200 -14.009700 16.364100
					CHANNELS 3 Xrotation Yrotation Zrotation
					JOINT LeftToe_End
					{
						OFFSET -1.784700 -0.561700 9.474800
						CHANNELS 3 Xrotation Yrotation Zrotation
						End Site
						{
							OFFSET 0.000000 0.000000 0.000000
						}
					}
				}
			}
		}
	}
	JOINT RightUpLeg
	{
		OFFSET -12.883000 -6.336304 -1.092800
		CHANNELS 3 Xrotation Yrotation Zrotation
		JOINT RightLeg
		{
			OFFSET -0.524587 -46.096825 9.782800
			CHANNELS 3 Xrotation Yrotation Zrotation
			JOINT RightFoot
			{
				OFFSET 0.524587 -53.427383 -12.948300
				CHANNELS 3 Xrotation Yrotation Zrotation
				JOINT RightToeBase
				{
					OFFSET -0.192200 -14.009700 16.364100
					CHANNELS 3 Xrotation Yrotation Zrotation
					JOINT RightToe_End
					{
						OFFSET 1.784700 -0.561700 9.474800
						CHANNELS 3 Xrotation Yrotation Zrotation
						End Site
						{
							OFFSET 0.000000 0.000000 0.000000
						}
					}
				}
			}
		}
	}
}
MOTION
Frames: 5
Frame Time: 0.016667
-1.111165 101.148750 0.434510 3.032225 -58.328470 6.707863 11.191923 0.157684 -2.923559 8.434583 0.027698 -5.592316 0.000000 0.000000 0.000000 8.457046 0.027884 -5.591869 -21.555736 25.063377 12.062606 -0.294014 25.465834 -3.208972 -0.000000 0.000000 -0.000000 -6.221661 -11.503795 -4.023837 0.000000 0.000000 0.000000 -23.061662 9.569086 -36.639723 0.046285 -43.170836 -0.011040 22.743587 -5.684991 15.978965 -1.064219 -7.954914 8.490095 2.373407 19.986102 -2.038327 0.808193 1.237791 2.631743 0.000000 -0.000001 0.000001 13.340888 -1.006669 10.682295 -0.167589 0.303438 -31.105668 -0.143381 0.303601 -32.256245 -0.000001 -0.000000 -0.000000 8.495435 -0.329519 -0.915308 0.231519 0.661184 -29.901817 0.444089 0.213440 -44.357055 -0.000001 -0.000000 0.000001 6.111748 3.150905 -16.210957 0.047086 0.322412 -30.125454 0.408795 0.818953 -42.140645 -0.000000 -0.000000 -0.000002 -5.636023 7.709906 -13.878616 0.224367 0.276575 -46.588375 0.261264 0.249367 -46.286843 0.000000 -0.000001 0.000001 -5.488241 10.658243 2.466560 0.000000 0.000000 0.000000 -41.473168 -26.756154 30.079467 24.953746 111.863957 -23.306755 -8.702480 12.422790 -9.802167 0.264988 10.061091 -10.888489 1.383801 -17.412865 3.016276 3.342363 -13.253729 -8.262774 -0.000000 0.000004 -0.000000 19.443592 11.174438 -13.340189 -0.118667 -0.322699 18.035608 -0.089884 -0.286626 23.256579 -0.000000 -0.000004 0.000000 4.320455 2.436976 -4.811720 0.349132 -0.461258 26.890308 0.467517 0.154044 39.044862 -0.000003 0.000000 -0.000000 -7.005637 -10.695123 5.719843 0.111877 -0.089203 26.155900 0.451281 -0.473521 33.265036 -0.000001 0.000001 0.000000 -19.433524 -20.238199 5.987865 0.223780 -0.085773 36.844622 0.260773 -0.047521 36.471670 0.000001 0.000000 -0.000001 -36.056808 9.366522 25.451312 41.733241 -7.555507 -9.726300 -7.259324 -2.461428 -9.583444 -0.327617 1.238420 0.837260 0.000000 -0.000002 -0.000000 -33.212850 -7.748439 -26.040067 46.179978 2.592801 -7.371167 -16.829632 3.005737 21.139347 -0.322749 -0.997301 -0.837142 -0.000000 0.000001 0.000000 
-1.096789 101.151749 0.480763 3.055943 -58.298991 6.722619 11.191923 0.158253 -2.922421 8.434584 0.027697 -5.592322 0.000000 0.000000 0.000000 8.457057 0.027860 -5.591859 -21.547780 25.033960 12.079124 -0.272047 25.428509 -3.263956 0.000000 0.000001 -0.000000 -6.224960 -11.506069 -4.040198 0.000000 0.000000 0.000000 -23.270313 9.617850 -36.667860 0.069780 -43.129496 0.031144 23.501489 -5.369463 16.129545 -1.038532 -7.796630 8.549072 2.420521 20.133390 -1.982854 0.844458 1.387016 2.703127 0.000001 -0.000000 0.000000 13.341394 -1.007238 10.512657 -0.167397 0.303514 -31.275375 -0.142756 0.303458 -32.425954 -0.000000 0.000000 0.000000 8.492720 -0.327833 -1.084967 0.232463 0.661756 -30.071510 0.445107 0.213757 -44.526744 -0.000001 0.000001 0.000000 6.109954 3.152860 -16.380441 0.047148 0.323611 -30.295185 0.410499 0.818855 -42.310341 0.000000 0.000000 0.000001 -5.636753 7.710931 -14.047783 0.225073 0.277139 -46.757986 0.262046 0.249774 -46.456491 0.000001 -0.000001 0.000002 -5.494062 10.657930 2.495531 0.000000 0.000000 0.000000 -41.054437 -26.626309 30.531588 28.810192 112.648247 -27.515743 -7.502684 11.836822 -10.784957 0.243517 10.220459 -10.828471 1.330383 -17.266305 3.075570 3.320059 -13.102343 -8.195416 0.000001 0.000002 -0.000001 19.443320 11.174232 -13.513166 -0.118827 -0.322586 17.863212 -0.090569 -0.286619 23.084166 0.000000 0.000003 -0.000000 4.323252 2.438526 -4.984190 0.348168 -0.460556 26.717922 0.466444 0.154486 38.872423 -0.000001 -0.000002 -0.000000 -7.004228 -10.693728 5.546726 0.111888 -0.088040 25.983455 0.449539 -0.473395 33.092663 0.000001 -0.000001 -0.000000 -19.432983 -20.237547 5.812524 0.223200 -0.085075 36.672201 0.260019 -0.046968 36.299286 -0.000001 -0.000000 -0.000002 -36.083131 9.369187 25.426610 41.754026 -7.574132 -9.732061 -7.276846 -2.464262 -9.544091 -0.327612 1.238484 0.837250 0.000000 0.000001 0.000000 -33.188760 -7.747394 -26.064973 46.138321 2.572735 -7.368078 -16.817452 2.999954 21.179694 -0.322750 -0.997406 -0.837125 0.000000 0.000002 -0.000000 
-1.052503 101.160858 0.612565 3.077477 -58.269614 6.727903 11.191927 0.159600 -2.918918 8.427929 0.021797 -5.590526 0.000000 0.000000 0.000000 8.450538 0.024361 -5.590742 -21.522819 24.948427 12.125789 -0.210771 25.320596 -3.422928 0.000000 0.000000 0.000001 -6.234554 -11.512582 -4.088059 0.000000 0.000000 0.000000 -23.549884 9.594471 -36.642575 0.138472 -42.979269 0.153737 24.249767 -5.074730 16.216163 -1.011775 -7.630804 8.610739 2.469889 20.287605 -1.924799 0.882267 1.543347 2.777792 -0.000001 -0.000000 0.000002 13.341951 -1.007879 10.334936 -0.167213 0.303588 -31.453052 -0.142110 0.303259 -32.603655 -0.000002 0.000002 0.000000 8.489886 -0.326096 -1.262663 0.233456 0.662295 -30.249282 0.446233 0.214090 -44.704432 -0.000003 -0.000000 0.000000 6.109450 3.154894 -16.558103 0.047215 0.324720 -30.472858 0.412293 0.818768 -42.488090 0.000001 -0.000000 0.000001 -5.635105 7.712070 -14.225272 0.225748 0.277713 -46.935779 0.262876 0.250186 -46.634247 0.000001 0.000001 0.000004 -5.511179 10.663430 2.580823 0.000000 0.000000 0.000000 -40.669433 -26.535563 30.926595 30.091884 112.878431 -29.366323 -7.446039 11.442788 -11.863747 0.220564 10.390398 -10.764409 1.272168 -17.106776 3.140224 3.296335 -12.942768 -8.124421 -0.000002 0.000002 -0.000000 19.443044 11.174031 -13.701392 -0.119000 -0.322428 17.675432 -0.091325 -0.286693 22.896481 0.000001 0.000000 -0.000000 4.326305 2.440242 -5.171986 0.347182 -0.459872 26.530149 0.465298 0.155057 38.684740 -0.000002 0.000001 -0.000000 -7.002677 -10.692170 5.358379 0.111895 -0.086792 25.795755 0.448881 -0.472384 32.904908 0.000002 -0.000001 0.000000 -19.432411 -20.236766 5.622101 0.222544 -0.084401 36.484456 0.259283 -0.046390 36.111511 -0.000001 -0.000000 -0.000000 -36.110957 9.380774 25.368086 41.823154 -7.589016 -9.746136 -7.340863 -2.468549 -9.455289 -0.327636 1.238445 0.837270 0.000000 -0.000000 0.000000 -33.125495 -7.750570 -26.137788 46.026480 2.578244 -7.355831 -16.772687 2.991351 21.265236 -0.322769 -0.997429 -0.837155 -0.000000 0.000002 0.000000 
-0.980248 101.175880 0.824234 3.098502 -58.240579 6.725409 11.191635 0.157699 -2.912420 8.417019 0.011638 -5.587466 0.000000 0.000000 0.000000 8.439836 0.017437 -5.588557 -21.483279 24.810497 12.200239 -0.116152 25.146474 -3.675495 0.000000 0.000000 0.000001 -6.250119 -11.523015 -4.165737 0.000000 0.000000 0.000000 -23.890542 9.501990 -36.578907 0.247201 -42.732310 0.348570 24.987923 -4.799917 16.250145 -0.984036 -7.458095 8.674864 2.521183 20.448145 -1.864329 0.921426 1.706146 2.855437 0.000000 -0.000000 0.000001 13.342524 -1.008601 10.149962 -0.167016 0.303735 -31.638106 -0.141416 0.303264 -32.788699 -0.000001 0.000001 -0.000001 8.486904 -0.324313 -1.447680 0.234522 0.663163 -30.434295 0.447393 0.214387 -44.889468 -0.000003 0.000001 0.000001 6.108906 3.157022 -16.743046 0.047355 0.325776 -30.657922 0.414145 0.818578 -42.673127 -0.000000 0.000001 0.000003 -5.633351 7.713222 -14.410115 0.226465 0.278277 -47.120799 0.263756 0.250639 -46.819267 -0.000001 0.000001 0.000002 -5.532797 10.672750 2.720148 0.000000 0.000000 0.000000 -40.331813 -26.475729 31.254085 31.604388 113.060832 -31.458075 -7.371033 11.217560 -13.032108 0.196129 10.570074 -10.696630 1.209446 -16.935275 3.209928 3.271324 -12.775556 -8.049986 0.000000 -0.000004 0.000003 19.442735 11.173832 -13.903703 -0.119174 -0.322240 17.473490 -0.092144 -0.286676 22.694497 -0.000002 -0.000000 -0.000002 4.329544 2.442096 -5.373976 0.346113 -0.458882 26.328270 0.464123 0.155582 38.482782 -0.000002 0.000001 0.000000 -7.000971 -10.690025 5.156135 0.111902 -0.085455 25.593841 0.448156 -0.471291 32.702946 0.000001 0.000000 -0.000000 -19.431121 -20.232619 5.419766 0.221930 -0.083635 36.282498 0.258423 -0.045670 35.909624 -0.000001 -0.000001 0.000001 -36.139904 9.401848 25.277448 41.935456 -7.599842 -9.767621 -7.448697 -2.474289 -9.317309 -0.327646 1.238429 0.837271 0.000000 -0.000000 -0.000000 -33.024111 -7.756473 -26.253565 45.846426 2.604137 -7.334874 -16.697569 2.980270 21.391966 -0.322739 -0.997423 -0.837139 -0.000000 0.000002 -0.000000 
-0.881965 101.196877 1.109822 3.120686 -58.212090 6.716972 11.191283 0.154891 -2.903830 8.401978 -0.002255 -5.583285 0.000000 0.000000 0.000000 8.425057 0.008611 -5.583552 -21.431262 24.624162 12.298790 0.012603 24.910345 -4.012509 -0.000000 0.000000 -0.000001 -6.271299 -11.537113 -4.271441 0.000000 0.000000 0.000000 -24.278471 9.356760 -36.480102 0.390042 -42.425549 0.606444 25.720259 -4.531573 16.233912 -0.955432 -7.279247 8.741199 2.577675 20.612462 -1.800871 0.961755 1.874841 2.935776 0.000000 -0.000000 -0.000000 13.343100 -1.009296 9.958331 -0.166761 0.303889 -31.829822 -0.140737 0.303280 -32.980398 -0.000002 -0.000000 0.000002 8.483858 -0.322399 -1.639333 0.235579 0.663938 -30.626059 0.448549 0.214983 -45.081175 -0.000001 0.000000 -0.000001 6.108301 3.159229 -16.934629 0.047435 0.326828 -30.849605 0.416082 0.818430 -42.864840 0.000000 -0.000001 -0.000000 -5.631696 7.714378 -14.601592 0.227238 0.278887 -47.312495 0.264661 0.251081 -47.011014 -0.000000 0.000001 -0.000002 -5.562383 10.685538 2.911043 0.000000 0.000000 0.000000 -40.035430 -26.442456 31.521255 33.383444 113.217414 -33.826215 -7.264169 11.150093 -14.283794 0.170375 10.758732 -10.625420 1.142361 -16.752745 3.284173 3.245082 -12.601427 -7.972416 -0.000001 0.000000 0.000001 19.442425 11.173611 -14.119058 -0.119375 -0.322064 17.258524 -0.092962 -0.286763 22.479500 -0.000001 -0.000001 -0.000004 4.333045 2.444027 -5.589093 0.344951 -0.457849 26.113222 0.462863 0.156137 38.267788 0.000002 -0.000001 0.000002 -6.999167 -10.687694 4.940921 0.111363 -0.084011 25.378814 0.447414 -0.470099 32.487966 0.000003 0.000000 0.000001 -19.429416 -20.228891 5.204585 0.221246 -0.082800 36.067514 0.257563 -0.044965 35.694558 -0.000002 0.000000 -0.000000 -36.169185 9.432355 25.156434 42.085560 -7.605547 -9.795236 -7.596671 -2.482326 -9.134484 -0.327637 1.238425 0.837264 -0.000000 0.000000 -0.000000 -32.888081 -7.765486 -26.408860 45.601652 2.649861 -7.305680 -16.591660 2.967270 21.558975 -0.322772 -0.997379 -0.837135 0.000000 0.000001 -0.000000 
